<svg width="22" height="24" viewBox="0 0 22 24" fill="none" xmlns="http://www.w3.org/2000/svg">
<path fill-rule="evenodd" clip-rule="evenodd" d="M15.0276 15.894C15.4703 15.5251 16.1283 15.5849 16.4972 16.0276L21.7146 22.2885C22.0836 22.7312 22.0237 23.3892 21.581 23.7581C21.1383 24.1271 20.4803 24.0672 20.1114 23.6245L14.894 17.3637C14.5251 16.9209 14.5849 16.2629 15.0276 15.894Z" fill="#E78182"/>
<path fill-rule="evenodd" clip-rule="evenodd" d="M9.43475 16.6956C13.4688 16.6956 16.7391 13.4254 16.7391 9.3913C16.7391 5.35722 13.4688 2.08695 9.43475 2.08695C5.40068 2.08695 2.13041 5.35722 2.13041 9.3913C2.13041 13.4254 5.40068 16.6956 9.43475 16.6956ZM9.43475 18.7826C14.6214 18.7826 18.826 14.578 18.826 9.3913C18.826 4.20463 14.6214 0 9.43475 0C4.24808 0 0.043457 4.20463 0.043457 9.3913C0.043457 14.578 4.24808 18.7826 9.43475 18.7826Z" fill="#E78182"/>
</svg>
