<svg width="24" height="24" viewBox="0 0 24 24" fill="none" xmlns="http://www.w3.org/2000/svg">
<path fill-rule="evenodd" clip-rule="evenodd" d="M12 0C12.7364 0 13.3333 0.596954 13.3333 1.33333V22.6667C13.3333 23.403 12.7364 24 12 24C11.2636 24 10.6667 23.403 10.6667 22.6667V1.33333C10.6667 0.596954 11.2636 0 12 0Z" fill="white"/>
<path fill-rule="evenodd" clip-rule="evenodd" d="M0 12C-3.21882e-08 11.2636 0.596954 10.6667 1.33333 10.6667L22.6667 10.6667C23.403 10.6667 24 11.2636 24 12C24 12.7364 23.403 13.3333 22.6667 13.3333L1.33333 13.3333C0.596954 13.3333 3.21882e-08 12.7364 0 12Z" fill="white"/>
</svg>
