<svg width="25" height="24" viewBox="0 0 25 24" fill="none" xmlns="http://www.w3.org/2000/svg">
<path d="M12.5 15.5C13.8807 15.5 15 14.3807 15 13C15 11.6193 13.8807 10.5 12.5 10.5C11.1193 10.5 10 11.6193 10 13C10 14.3807 11.1193 15.5 12.5 15.5Z" fill="#60635E"/>
<path fill-rule="evenodd" clip-rule="evenodd" d="M16.9806 6.1958C16.9924 6.44923 17.1869 6.65945 17.4387 6.69094C21.0821 7.14671 21.5 8.63107 21.5 13.25C21.5 19.4377 20.75 20 12.5 20C4.25 20 3.5 19.4377 3.5 13.25C3.5 8.63107 3.91791 7.14671 7.56133 6.69094C7.81307 6.65945 8.00765 6.44923 8.01944 6.1958C8.1335 3.74547 8.84336 3.5 12.5 3.5C16.1566 3.5 16.8665 3.74547 16.9806 6.1958ZM12.5 17C14.7092 17 16.5 15.2092 16.5 13C16.5 10.7908 14.7092 9 12.5 9C10.2908 9 8.5 10.7908 8.5 13C8.5 15.2092 10.2908 17 12.5 17ZM19 10C19 10.5523 18.5523 11 18 11C17.4477 11 17 10.5523 17 10C17 9.44771 17.4477 9 18 9C18.5523 9 19 9.44771 19 10Z" fill="#60635E"/>
</svg>
