<svg width="31" height="30" viewBox="0 0 31 30" fill="none" xmlns="http://www.w3.org/2000/svg">
<path d="M26.55 5.76258C25.9116 5.12384 25.1535 4.61714 24.3192 4.27144C23.4849 3.92574 22.5906 3.7478 21.6875 3.7478C20.7844 3.7478 19.8902 3.92574 19.0558 4.27144C18.2215 4.61714 17.4635 5.12384 16.825 5.76258L15.5 7.08758L14.175 5.76258C12.8854 4.47297 11.1363 3.74847 9.31253 3.74847C7.48874 3.74847 5.73964 4.47297 4.45003 5.76258C3.16041 7.0522 2.43591 8.80129 2.43591 10.6251C2.43591 12.4489 3.16041 14.198 4.45003 15.4876L5.77503 16.8126L15.5 26.5376L25.225 16.8126L26.55 15.4876C27.1888 14.8491 27.6955 14.0911 28.0412 13.2568C28.3869 12.4225 28.5648 11.5282 28.5648 10.6251C28.5648 9.72197 28.3869 8.82771 28.0412 7.99339C27.6955 7.15907 27.1888 6.40103 26.55 5.76258Z" stroke="#E78182" stroke-width="2.1" stroke-linecap="round" stroke-linejoin="round"/>
</svg>
