<svg width="32" height="32" viewBox="0 0 32 32" fill="none" xmlns="http://www.w3.org/2000/svg">
<path fill-rule="evenodd" clip-rule="evenodd" d="M6.07099 25.0213C6.07099 26.6664 7.4046 28 9.0497 28H22.9503C24.5954 28 25.929 26.6664 25.929 25.0213V13.1065H23.9432V25.0213C23.9432 25.5697 23.4987 26.0142 22.9503 26.0142H9.0497C8.50133 26.0142 8.0568 25.5697 8.0568 25.0213V13.1065H6.07099V25.0213Z" fill="currentColor"/>
<path fill-rule="evenodd" clip-rule="evenodd" d="M16.7021 6.27662C16.3143 5.88887 15.6857 5.88887 15.2979 6.27662L4.78727 16.7873C4.39952 17.175 3.77085 17.175 3.3831 16.7873C2.99535 16.3995 2.99535 15.7708 3.3831 15.3831L13.8937 4.87244C15.057 3.70919 16.943 3.70919 18.1063 4.87244L28.6169 15.3831C29.0047 15.7708 29.0047 16.3995 28.6169 16.7873C28.2292 17.175 27.6005 17.175 27.2127 16.7873L16.7021 6.27662Z" fill="currentColor"/>
</svg>
