<svg width="46" height="32" viewBox="0 0 46 32" fill="none" xmlns="http://www.w3.org/2000/svg">
<path d="M7.06171 21.0326C7.06171 21.0326 6.40406 21.8776 6.35375 22.4051C6.30343 22.9326 6.81015 27.2276 7.92062 28.1776C9.03109 29.1276 12.4236 31.6276 22.4394 31.6976C32.4552 31.7676 37.5655 28.6001 38.1225 27.9676C38.6795 27.3351 39.3875 24.3776 39.4378 22.0551C39.4881 19.7326 21.6811 21.3501 21.6811 21.3501L7.06171 21.0326Z" fill="#FBB75A"/>
<path d="M22.2381 26.6626C31.1434 26.8376 39.3875 23.0376 39.3875 23.0376L39.1359 24.9376C39.1359 24.9376 32.3581 28.5626 22.389 28.3876C12.42 28.2126 6.65562 24.9376 6.65562 24.9376L6.40405 23.2826C6.40405 23.2826 14.4505 26.5076 22.2381 26.6626Z" fill="#F2A05B"/>
<path d="M23.3522 11.8799C19.5572 11.8924 8.12548 12.5124 6.9611 15.8924C5.79673 19.2724 5.94766 22.4399 6.15251 22.7199C6.35376 23.0024 6.80657 22.5149 7.87391 22.7899C9.23954 23.1424 9.13891 25.7099 11.6186 26.1674C14.0983 26.6249 14.1486 24.2674 16.9805 24.4074C19.8124 24.5474 18.497 27.1899 22.2417 27.2224C26.087 27.2574 24.6603 24.6074 27.352 24.3724C30.015 24.1374 28.617 27.0124 32.3114 26.6249C36.0058 26.2374 35.5781 22.5799 37.4684 22.1924C38.9024 21.8999 38.7802 22.8799 39.4594 22.8374C40.0164 22.8024 39.7972 17.4399 39.2905 16.2449C38.7838 15.0499 34.0256 11.8449 23.3522 11.8799Z" fill="url(#paint0_radial_276_1235)"/>
<path d="M11.8414 19.4299C9.14968 18.6399 8.27999 17.8924 7.84515 17.5124C7.54327 17.2474 7.08687 17.1424 6.83171 17.3549C6.58015 17.5649 6.70593 17.7949 6.98265 18.0224C7.25937 18.2524 8.49921 19.5699 11.6869 20.2924C14.49 20.9274 16.3408 21.0149 17.0487 21.0324C17.8358 21.0524 18.1628 20.3649 17.1242 20.2749C15.9347 20.1724 14.7775 20.2924 11.8414 19.4299Z" fill="#FDFFFF"/>
<path d="M19.9273 20.5275C19.2373 20.515 18.9822 20.785 18.9822 20.9975C18.9822 21.255 19.302 21.3975 19.8591 21.42C20.4161 21.4425 20.7359 21.185 20.7359 21.01C20.7395 20.8325 20.585 20.5375 19.9273 20.5275Z" fill="#FDFFFF"/>
<path d="M9.03468 22.195C8.71843 22.41 8.85139 22.66 9.00233 22.79C9.2503 23.0025 9.69593 23.0375 9.92593 22.9125C10.1883 22.7725 10.1559 22.5125 9.99061 22.34C9.77858 22.115 9.34733 21.98 9.03468 22.195Z" fill="#FCE9CA"/>
<path d="M9.91876 23.12C9.48392 23.29 9.67798 23.6675 9.91157 23.9775C10.4111 24.6375 10.5692 25.175 11.1442 25.44C11.7264 25.7075 12.4452 25.5225 12.3769 25.245C12.2691 24.8025 11.8774 25.1375 11.5395 24.5775C11.3994 24.345 11.1119 23.9725 10.7777 23.47C10.5836 23.175 10.3572 22.9475 9.91876 23.12Z" fill="#FCE9CA"/>
<path d="M20.0459 24.9026C19.6183 25.1151 19.877 25.6526 20.4161 26.0751C20.9552 26.4976 21.7134 26.8376 22.54 26.6851C23.1797 26.5676 23.1294 26.0751 22.6909 25.9351C22.2525 25.7951 21.7314 25.8776 21.257 25.4426C21.027 25.2301 20.7036 24.5751 20.0459 24.9026Z" fill="#FCE9CA"/>
<path d="M30.2019 24.44C29.7778 24.6575 30.1767 25.11 30.4391 25.4225C30.7014 25.735 31.5675 26.335 32.0742 25.98C32.4444 25.72 31.7472 25.405 31.4201 25.065C31.1758 24.8075 30.7661 24.1475 30.2019 24.44Z" fill="#FCE9CA"/>
<path d="M29.4724 23.6251C29.192 23.7676 29.2352 23.9926 29.3358 24.1176C29.4723 24.2826 29.9108 24.3526 30.1623 24.2001C30.4067 24.0526 30.263 23.8126 30.13 23.6951C29.997 23.5776 29.6592 23.5301 29.4724 23.6251Z" fill="#FCE9CA"/>
<path d="M31.05 9.89258C31.05 9.89258 28.272 12.5576 28.4481 13.0876C28.5847 13.5051 29.2316 13.9526 30.6152 14.0176C31.9987 14.0826 32.8648 13.6351 33.0625 13.2101C33.3284 12.6451 32.4623 10.8451 32.1497 10.4876C31.7077 9.98008 31.3087 9.90758 31.05 9.89258Z" fill="#EE5B4A"/>
<path d="M36.7928 12.2976L33.8064 15.2076C33.8064 15.2076 33.8962 15.8451 34.7947 16.1201C35.7326 16.4051 37.6481 16.4226 38.198 15.8651C38.8233 15.2326 38.5537 14.1451 38.2375 13.4876C37.9931 12.9726 37.4756 12.2426 36.7928 12.2976Z" fill="#EE5B4A"/>
<path d="M31.7364 15.585L28.847 18.6725C28.847 18.6725 28.8147 19.4375 30.1192 19.65C31.1542 19.8175 33.0553 19.825 33.7633 19.4025C34.4712 18.98 34.4137 18.13 33.8028 17.2375C33.1344 16.2675 32.1425 15.355 31.7364 15.585Z" fill="#EE5B4A"/>
<path d="M24.5417 16.3425L20.7575 19.5275C20.7575 19.5275 20.682 20.1425 21.6164 20.4425C22.8167 20.83 24.6639 20.81 25.6019 20.46C26.4248 20.1525 26.5506 19.1775 26.2523 18.5675C26.008 18.07 25.6702 17.6475 25.5444 17.4175C25.4186 17.19 24.9945 16.4825 24.5417 16.3425Z" fill="#EE5B4A"/>
<path d="M16.3947 15.2676L13.1711 18.7701C13.1711 18.7701 13.2717 19.5876 14.5008 19.7551C15.5609 19.9001 17.3075 19.9851 17.9148 19.4551C18.5222 18.9251 18.5473 17.5801 17.9651 16.6301C17.383 15.6826 16.8762 15.3926 16.3947 15.2676Z" fill="#EE5B4A"/>
<path d="M11.5 11.9649L11.0687 11.8574L8.19374 15.0174C8.19374 15.0174 8.11108 15.5749 8.77952 15.8724C9.41202 16.1549 11.4245 16.2949 12.5098 15.9249C13.5987 15.5549 13.5197 14.3149 12.7614 13.2499C12.0606 12.2624 11.5 11.9649 11.5 11.9649Z" fill="#EE5B4A"/>
<path d="M16.7756 9.63257L13.9833 12.9851C13.9833 12.9851 14.1055 13.4201 15.0686 13.6101C16.0137 13.7976 17.25 13.7626 17.8825 13.4226C18.5186 13.0826 18.6875 12.3351 18.3964 11.4676C18.1987 10.8751 17.4333 9.80257 16.7756 9.63257Z" fill="#EE5B4A"/>
<path d="M14.0192 16.4899C13.4191 17.3899 12.5781 18.7249 13.5376 19.1649C14.4972 19.6049 15.9167 18.8999 16.4198 17.5799C16.923 16.2599 17.002 15.5999 16.5205 15.3174C16.0425 15.0399 14.8026 15.3124 14.0192 16.4899Z" fill="#FD6F42"/>
<path d="M10.7633 11.7549C10.0805 11.7849 9.29703 12.5199 8.90532 13.2424C8.5136 13.9649 8.05719 14.8624 8.2225 15.1524C8.38782 15.4424 9.51266 15.7949 9.99422 15.1799C10.4758 14.5649 10.3788 13.7424 10.4866 13.3224C10.677 12.5824 11.5 11.9674 11.5 11.9674C11.5 11.9674 11.2197 11.7349 10.7633 11.7549Z" fill="#FD6F42"/>
<path d="M16.1755 9.48762C15.6867 9.50762 15.2231 9.65012 14.8063 10.6001C14.5799 11.1201 13.9402 11.7226 13.8791 12.2901C13.818 12.8601 14.0013 13.0076 14.0013 13.0076C14.0013 13.0076 15.1728 13.1651 15.6292 12.5301C16.0677 11.9226 15.9311 11.3026 16.0785 11.0151C16.2258 10.7251 16.8978 9.67262 16.8978 9.67262C16.8978 9.67262 16.6031 9.47262 16.1755 9.48762Z" fill="#FD6F42"/>
<path d="M30.9314 9.87501C30.4175 9.85751 29.6664 10.3 29.1884 11.09C28.7069 11.88 28.4158 12.7375 28.4373 12.99C28.4589 13.2425 30.3564 13.2725 31.0248 12.51C31.4453 12.03 31.4237 10.7425 31.377 10.4325C31.3339 10.12 31.4669 9.89251 30.9314 9.87501Z" fill="#FF6E45"/>
<path d="M36.6347 12.2875C36.1927 12.3375 35.1505 12.515 34.3095 13.7775C33.7848 14.565 33.6267 15.3225 34.0077 15.4325C34.3886 15.5425 35.4272 15.6525 35.9016 15.24C36.3759 14.8275 36.9006 13.705 37.0192 13.145C37.1342 12.59 37.2133 12.2225 36.6347 12.2875Z" fill="#FF6E45"/>
<path d="M28.9548 18.8851C29.5227 19.2451 30.6044 18.9051 30.9925 18.5851C31.5855 18.0926 32.0814 17.0626 32.1066 16.3426C32.1245 15.8201 32.297 15.5251 31.6394 15.5501C31.413 15.5601 30.7913 15.6376 30.0725 16.3776C29.5011 16.9626 29.1741 17.4251 28.9836 17.9976C28.8219 18.4726 28.7895 18.7801 28.9548 18.8851Z" fill="#FF6E45"/>
<path d="M23.7942 16.165C23.4277 16.155 22.7305 16.305 22.0117 17.1325C21.2894 17.96 20.47 19.2975 20.8222 19.71C21.178 20.1225 22.0477 20.1675 22.9353 19.9125C23.8194 19.6575 24.4267 18.7675 24.477 18.4075C24.5274 18.0475 24.8688 16.5075 24.5777 16.3575C24.2866 16.21 24.1105 16.175 23.7942 16.165Z" fill="#FF6E45"/>
<path d="M37.4828 6.50744C37.4828 9.98994 29.4831 13.0774 23.248 13.0774C17.0128 13.0774 9.08142 9.80244 9.08142 6.31994C9.08142 2.83744 16.9014 0.0649414 23.133 0.0649414C29.3645 0.0649414 37.4828 3.02494 37.4828 6.50744Z" fill="url(#paint1_radial_276_1235)"/>
<path d="M26.1589 7.78C26.2847 7.6575 28.653 7.795 28.865 7.8325C28.9656 7.85 28.9405 14.1325 28.8147 14.185C28.7069 14.23 28.2828 14.5025 27.4742 14.5025C26.6656 14.5025 26.2092 14.31 26.0583 14.2375C25.9073 14.1675 26.0331 7.9025 26.1589 7.78Z" fill="#FEA8A8"/>
<path d="M21.8105 9.32995C21.7134 9.38745 21.6847 15.4549 21.7602 15.5074C21.8356 15.5599 22.3424 15.8774 23.327 15.8599C24.3153 15.8424 24.7681 15.5949 24.8436 15.5424C24.9191 15.4899 24.8939 9.32995 24.8184 9.29495C24.743 9.25745 21.9614 9.23995 21.8105 9.32995Z" fill="#EC7FAE"/>
<path d="M17.559 8.02747C17.4369 8.07747 17.4333 14.24 17.4836 14.2925C17.5339 14.345 18.267 14.5225 18.9498 14.5225C19.6326 14.5225 20.2903 14.4175 20.3658 14.365C20.4412 14.3125 20.3909 8.09997 20.3155 8.02997C20.24 7.95997 17.6848 7.97497 17.559 8.02747Z" fill="#93C7EE"/>
<path d="M23.3522 3.75C23.5031 3.75 23.708 4.5775 23.9847 5.0525C24.2614 5.5275 25.3 6.7075 24.8939 7.7275C24.4519 8.845 21.947 9.0625 21.4044 7.605C21.0234 6.585 22.3136 5.5275 22.6442 5.0525C22.8706 4.725 23.248 3.75 23.3522 3.75Z" fill="url(#paint2_radial_276_1235)"/>
<path d="M27.4239 2.46509C27.4239 2.46509 27.0501 3.65009 26.5901 4.15509C25.9325 4.87759 25.5156 5.86509 26.0331 6.67259C26.6908 7.69259 29.325 7.64009 29.3717 5.89759C29.3969 4.98259 28.8219 4.49759 28.4122 3.98009C28.1319 3.62759 27.6 2.50009 27.4239 2.46509Z" fill="url(#paint3_radial_276_1235)"/>
<path d="M19.0505 2.65991C19.0505 2.65991 18.3677 3.83991 17.9364 4.27991C17.5052 4.71991 16.7397 5.75741 17.1781 6.58491C17.71 7.58741 20.0639 7.70741 20.5167 6.39241C20.8186 5.51241 20.1609 4.84491 19.7081 4.12241C19.4242 3.66741 19.0505 2.65991 19.0505 2.65991Z" fill="url(#paint4_radial_276_1235)"/>
<defs>
<radialGradient id="paint0_radial_276_1235" cx="0" cy="0" r="1" gradientUnits="userSpaceOnUse" gradientTransform="translate(23.473 15.6812) rotate(91.606) scale(11.4485 35.8117)">
<stop offset="0.445" stop-color="#FEEAC9"/>
<stop offset="0.565" stop-color="#FEE7C2"/>
<stop offset="0.741" stop-color="#FEDEAE"/>
<stop offset="0.952" stop-color="#FFCF8D"/>
<stop offset="1" stop-color="#FFCB85"/>
</radialGradient>
<radialGradient id="paint1_radial_276_1235" cx="0" cy="0" r="1" gradientUnits="userSpaceOnUse" gradientTransform="translate(23.2843 6.57086) scale(14.0243 6.00677)">
<stop offset="0.034" stop-color="#FFE265" stop-opacity="0.7"/>
<stop offset="0.112" stop-color="#FFE575" stop-opacity="0.643"/>
<stop offset="0.417" stop-color="#FFF0B0" stop-opacity="0.422"/>
<stop offset="0.677" stop-color="#FFF8DB" stop-opacity="0.234"/>
<stop offset="0.88" stop-color="#FFFDF5" stop-opacity="0.087"/>
<stop offset="1" stop-color="white" stop-opacity="0"/>
</radialGradient>
<radialGradient id="paint2_radial_276_1235" cx="0" cy="0" r="1" gradientUnits="userSpaceOnUse" gradientTransform="translate(23.3267 8.9945) scale(6.98193 4.857)">
<stop offset="0.17" stop-color="#FF9616"/>
<stop offset="0.654" stop-color="#FFD429"/>
</radialGradient>
<radialGradient id="paint3_radial_276_1235" cx="0" cy="0" r="1" gradientUnits="userSpaceOnUse" gradientTransform="translate(27.7481 7.70684) scale(6.84394 4.761)">
<stop offset="0.17" stop-color="#FF9616"/>
<stop offset="0.654" stop-color="#FFD429"/>
</radialGradient>
<radialGradient id="paint4_radial_276_1235" cx="0" cy="0" r="1" gradientUnits="userSpaceOnUse" gradientTransform="translate(18.9829 7.70541) scale(6.7753 4.71325)">
<stop offset="0.17" stop-color="#FF9616"/>
<stop offset="0.654" stop-color="#FFD429"/>
</radialGradient>
</defs>
</svg>
