<svg width="24" height="25" viewBox="0 0 24 25" fill="none" xmlns="http://www.w3.org/2000/svg">
<g clip-path="url(#clip0_267_914)">
<path d="M23 22.3573H22V14.3573C21.9984 13.0317 21.4711 11.7609 20.5338 10.8236C19.5964 9.88621 18.3256 9.35892 17 9.35733H13V6.39633C13.4455 6.20191 13.8246 5.88185 14.091 5.47531C14.3574 5.06877 14.4996 4.59338 14.5 4.10733C14.2299 2.82911 13.6213 1.64691 12.738 0.68433C12.6443 0.58186 12.5303 0.500024 12.4032 0.444035C12.2762 0.388046 12.1388 0.359131 12 0.359131C11.8612 0.359131 11.7238 0.388046 11.5968 0.444035C11.4697 0.500024 11.3557 0.58186 11.262 0.68433C10.3787 1.64691 9.77014 2.82911 9.5 4.10733C9.50045 4.59338 9.64257 5.06877 9.90898 5.47531C10.1754 5.88185 10.5545 6.20191 11 6.39633V9.35733H7C5.67441 9.35892 4.40356 9.88621 3.46622 10.8236C2.52888 11.7609 2.00159 13.0317 2 14.3573V22.3573H1C0.734784 22.3573 0.48043 22.4627 0.292893 22.6502C0.105357 22.8378 0 23.0921 0 23.3573C0 23.6225 0.105357 23.8769 0.292893 24.0644C0.48043 24.252 0.734784 24.3573 1 24.3573H23C23.2652 24.3573 23.5196 24.252 23.7071 24.0644C23.8946 23.8769 24 23.6225 24 23.3573C24 23.0921 23.8946 22.8378 23.7071 22.6502C23.5196 22.4627 23.2652 22.3573 23 22.3573ZM7 11.3573H17C17.7956 11.3573 18.5587 11.6734 19.1213 12.236C19.6839 12.7986 20 13.5617 20 14.3573V16.3373C19.064 16.2373 18.5 15.6373 18.5 15.3573C18.5 15.0921 18.3946 14.8378 18.2071 14.6502C18.0196 14.4627 17.7652 14.3573 17.5 14.3573C17.2348 14.3573 16.9804 14.4627 16.7929 14.6502C16.6054 14.8378 16.5 15.0921 16.5 15.3573C16.5 15.7003 15.818 16.3573 14.75 16.3573C13.661 16.3573 13 15.6633 13 15.3573C13 15.0921 12.8946 14.8378 12.7071 14.6502C12.5196 14.4627 12.2652 14.3573 12 14.3573C11.7348 14.3573 11.4804 14.4627 11.2929 14.6502C11.1054 14.8378 11 15.0921 11 15.3573C11 15.7003 10.318 16.3573 9.25 16.3573C8.161 16.3573 7.5 15.6633 7.5 15.3573C7.5 15.0921 7.39464 14.8378 7.20711 14.6502C7.01957 14.4627 6.76522 14.3573 6.5 14.3573C6.23478 14.3573 5.98043 14.4627 5.79289 14.6502C5.60536 14.8378 5.5 15.0921 5.5 15.3573C5.5 15.6723 4.921 16.2453 4 16.3383V14.3573C4 13.5617 4.31607 12.7986 4.87868 12.236C5.44129 11.6734 6.20435 11.3573 7 11.3573ZM4 18.3363C4.91869 18.2956 5.79793 17.9513 6.5 17.3573C7.27136 18.0003 8.24308 18.3537 9.2473 18.3565C10.2515 18.3592 11.2251 18.0111 12 17.3723C12.7749 18.0111 13.7485 18.3592 14.7527 18.3565C15.7569 18.3537 16.7286 18.0003 17.5 17.3573C18.2022 17.9509 19.0814 18.2949 20 18.3353V22.3573H4V18.3363Z" fill="black"/>
</g>
<defs>
<clipPath id="clip0_267_914">
<rect width="24" height="24" fill="white" transform="translate(0 0.357178)"/>
</clipPath>
</defs>
</svg>
