<svg width="121" height="120" viewBox="0 0 121 120" fill="none" xmlns="http://www.w3.org/2000/svg">
<path d="M0.5 60C0.5 26.8629 27.3629 0 60.5 0C93.6371 0 120.5 26.8629 120.5 60C120.5 93.1371 93.6371 120 60.5 120C27.3629 120 0.5 93.1371 0.5 60Z" fill="#C8BBBB"/>
<path fill-rule="evenodd" clip-rule="evenodd" d="M68.8097 52.52C68.8097 57.4075 68.0591 59.0279 67.5079 59.6523C67.0592 60.1634 65.6271 61.2321 60.5 61.2321C55.373 61.2321 53.9409 60.1634 53.4922 59.6523C52.941 59.0279 52.1904 57.4075 52.1904 52.52C52.1904 47.7081 55.9103 43.808 60.5 43.808C65.0898 43.808 68.8097 47.7081 68.8097 52.52ZM71.1226 64.0693C73.5573 61.7345 74.3495 57.9593 74.3495 52.52C74.3495 44.5021 68.1477 38 60.5 38C52.8524 38 46.6506 44.5021 46.6506 52.52C46.6506 57.9593 47.4428 61.7345 49.8775 64.0693C45.2684 66.7148 41.6537 71.0273 39.7702 76.2342C39.4267 77.1867 39.3464 78.2902 39.9142 79.1179C41.4875 81.4091 44.551 78.7955 45.8141 76.301C48.6034 70.7921 54.1348 67.0401 60.5 67.0401C66.8653 67.0401 72.3967 70.7921 75.186 76.301C76.4491 78.7955 79.5126 81.4091 81.0859 79.1179C81.6537 78.2902 81.5734 77.1867 81.2299 76.2342C79.3464 71.0273 75.7317 66.7148 71.1226 64.0693Z" fill="white" stroke="#C8BBBB"/>
</svg>
