<svg width="18" height="19" viewBox="0 0 18 19" fill="none" xmlns="http://www.w3.org/2000/svg">
<path d="M12 12.1608C12 12.3597 11.921 12.5504 11.7803 12.6911C11.6397 12.8317 11.4489 12.9108 11.25 12.9108H9.75V14.4108C9.75 14.6097 9.67098 14.8004 9.53033 14.9411C9.38968 15.0817 9.19891 15.1608 9 15.1608C8.80109 15.1608 8.61032 15.0817 8.46967 14.9411C8.32902 14.8004 8.25 14.6097 8.25 14.4108V12.9108H6.75C6.55109 12.9108 6.36032 12.8317 6.21967 12.6911C6.07902 12.5504 6 12.3597 6 12.1608C6 11.9619 6.07902 11.7711 6.21967 11.6304C6.36032 11.4898 6.55109 11.4108 6.75 11.4108H8.25V9.91077C8.25 9.71185 8.32902 9.52109 8.46967 9.38044C8.61032 9.23978 8.80109 9.16077 9 9.16077C9.19891 9.16077 9.38968 9.23978 9.53033 9.38044C9.67098 9.52109 9.75 9.71185 9.75 9.91077V11.4108H11.25C11.4489 11.4108 11.6397 11.4898 11.7803 11.6304C11.921 11.7711 12 11.9619 12 12.1608ZM18 6.91077V14.4108C17.9988 15.405 17.6033 16.3581 16.9003 17.0611C16.1973 17.7641 15.2442 18.1596 14.25 18.1608H3.75C2.7558 18.1596 1.80267 17.7641 1.09966 17.0611C0.396661 16.3581 0.00119089 15.405 0 14.4108L0 5.41077C0.00119089 4.41657 0.396661 3.46343 1.09966 2.76043C1.80267 2.05743 2.7558 1.66196 3.75 1.66077H5.646C5.99505 1.66106 6.33929 1.74218 6.65175 1.89777L9.01875 3.08577C9.12333 3.13596 9.238 3.16161 9.354 3.16077H14.25C15.2442 3.16196 16.1973 3.55743 16.9003 4.26043C17.6033 4.96343 17.9988 5.91657 18 6.91077ZM1.5 5.41077V6.16077H16.362C16.2074 5.72359 15.9216 5.34484 15.5435 5.07633C15.1655 4.80783 14.7137 4.66269 14.25 4.66077H9.354C9.00495 4.66048 8.66071 4.57936 8.34825 4.42377L5.98125 3.23952C5.87697 3.18803 5.7623 3.16109 5.646 3.16077H3.75C3.15326 3.16077 2.58097 3.39782 2.15901 3.81978C1.73705 4.24173 1.5 4.81403 1.5 5.41077ZM16.5 14.4108V7.66077H1.5V14.4108C1.5 15.0075 1.73705 15.5798 2.15901 16.0018C2.58097 16.4237 3.15326 16.6608 3.75 16.6608H14.25C14.8467 16.6608 15.419 16.4237 15.841 16.0018C16.2629 15.5798 16.5 15.0075 16.5 14.4108Z" fill="white"/>
</svg>
