<svg width="17" height="21" viewBox="0 0 17 21" fill="none" xmlns="http://www.w3.org/2000/svg">
<path fill-rule="evenodd" clip-rule="evenodd" d="M12.2499 5.64286C12.2499 7.65475 10.571 9.28571 8.49999 9.28571C6.42898 9.28571 4.75009 7.65475 4.75009 5.64286C4.75009 3.63096 6.42898 2 8.49999 2C9.49453 2 10.4483 2.3838 11.1516 3.06697C11.8548 3.75014 12.2499 4.67671 12.2499 5.64286Z" stroke="black" stroke-width="1.8" stroke-linecap="round" stroke-linejoin="round"/>
<path fill-rule="evenodd" clip-rule="evenodd" d="M11.5959 12.2856H5.40355C3.58103 12.3735 1.96635 13.455 1.23366 15.0785C0.349936 16.7639 2.11364 18.3571 4.16484 18.3571H12.8346C14.8871 18.3571 16.6508 16.7639 15.7658 15.0785C15.0331 13.455 13.4184 12.3735 11.5959 12.2856Z" stroke="black" stroke-width="1.8" stroke-linecap="round" stroke-linejoin="round"/>
</svg>
